<?xml version="1.0" encoding="utf-8"?>
<!-- Generator: Adobe Illustrator 19.0.0, SVG Export Plug-In . SVG Version: 6.00 Build 0)  -->
<svg version="1.1" id="Layer_1" xmlns="http://www.w3.org/2000/svg" xmlns:xlink="http://www.w3.org/1999/xlink" x="0px" y="0px"
	 viewBox="544 -744 2048 2048" style="enable-background:new 544 -744 2048 2048;" xml:space="preserve">
<style type="text/css">
	.st0{fill:#A661DB;}
</style>
<g id="XMLID_1_">
	<path id="XMLID_15_" class="st0" d="M2300.4,758.4c-42.4-38.8-66.8-93.8-66.8-150.9V217.3c0-21.6-17.5-39.2-39.2-39.2
		c-21.6,0-39.2,17.6-39.2,39.2v390.2c0,79.1,33.6,155.1,92.3,208.7c21.1,19.3,33.2,46.7,33.2,75.2c0,56.2-45.7,101.9-101.9,101.9
		H956c-56.2,0-101.9-45.7-101.9-101.9c0-28.5,12.1-55.9,33.2-75.2c58.6-53.6,92.3-129.7,92.3-208.7V154.6
		c0-324.2,263.7-587.9,587.9-587.9c89.2,0,177,20.3,256.5,58.8c-27.6,44.4-43.7,96.8-43.7,152.8c0,159.9,130.1,290,290,290
		s290-130.1,290-290s-130.1-290-290-290c-74.9,0-143.4,28.6-194.9,75.4c-58.4-30.5-121.1-52-185.8-64.1c14.4-22.5,22.8-49.3,22.8-78
		c0-80-65.1-145-145-145s-145,65.1-145,145c0,28.7,8.4,55.4,22.8,77.9c-309.2,57.6-544.1,329.3-544.1,655v452.9
		c0,57.1-24.3,112.1-66.8,150.9c-37.3,34.1-58.7,82.6-58.7,133.1c0,99.4,80.9,180.3,180.3,180.3h363.7
		c18.9,119.8,122.8,211.6,247.8,211.6s228.9-91.9,247.8-211.6h363.7c99.4,0,180.3-80.9,180.3-180.3
		C2359.1,840.9,2337.7,792.4,2300.4,758.4z M2281.9-221.7c0,116.7-94.9,211.6-211.6,211.6s-211.6-94.9-211.6-211.6
		s94.9-211.6,211.6-211.6S2281.9-338.4,2281.9-221.7z M1567.4-645c36.7,0,66.6,29.9,66.6,66.6c0,36.7-29.9,66.6-66.6,66.6
		s-66.6-29.9-66.6-66.6C1500.8-615.1,1530.7-645,1567.4-645z M1567.4,1204.9c-81.6,0-150.1-57-167.9-133.3h335.8
		C1717.5,1148,1649,1204.9,1567.4,1204.9z"/>
	<path id="XMLID_14_" class="st0" d="M1128.4,114.6c-21.6,0-39.2,17.6-39.2,39.2v0.8c0,21.6,17.5,39.2,39.2,39.2
		s39.2-17.6,39.2-39.2v-0.8C1167.6,132.1,1150.1,114.6,1128.4,114.6z"/>
	<path id="XMLID_13_" class="st0" d="M1199.2-1.5c62.8-148,207.4-243.7,368.2-243.7c21.6,0,39.2-17.6,39.2-39.2
		s-17.5-39.2-39.2-39.2c-192.3,0-365.2,114.4-440.3,291.4c-8.5,19.9,0.8,42.9,20.8,51.4c5,2.1,10.2,3.1,15.3,3.1
		C1178.4,22.4,1192.9,13.4,1199.2-1.5z"/>
	<path id="XMLID_12_" class="st0" d="M2029.9-228.6v71c0,21.6,17.5,39.2,39.2,39.2c21.6,0,39.2-17.6,39.2-39.2v-154.9
		c0-15.9-9.6-30.1-24.2-36.2c-14.6-6.1-31.5-2.7-42.7,8.5l-45.1,45.1c-15.3,15.3-15.3,40.1,0,55.4
		C2005.4-230.5,2018-226.8,2029.9-228.6z"/>
</g>
</svg>
